<?xml version="1.0"?>
<svg xmlns="http://www.w3.org/2000/svg" xmlns:xlink="http://www.w3.org/1999/xlink" version="1.1" id="Capa_1" x="0px" y="0px" viewBox="0 0 512 512" style="enable-background:new 0 0 512 512;" xml:space="preserve" width="512px" height="512px" class=""><g><circle style="fill:#E7ECED;" cx="256" cy="256" r="176.552" data-original="#E7ECED" class=""/><g>
	<path style="fill:#EB6864" d="M397.921,73.19c-1.827,0-3.663-0.565-5.244-1.73c-39.733-29.422-86.872-44.977-136.333-44.977   c-51.456,0-102.276,16.702-135.945,44.668c-2.631,2.189-6.294,2.657-9.393,1.201c-3.098-1.448-5.076-4.564-5.076-7.989V8.828   c0-4.873,3.955-8.828,8.828-8.828s8.828,3.955,8.828,8.828v37.976c35.919-23.993,84.18-37.976,132.758-37.976   c53.274,0,104.051,16.746,146.838,48.437c3.919,2.904,4.74,8.43,1.836,12.35C403.288,71.954,400.622,73.19,397.921,73.19z" data-original="#25AE88" class="active-path" data-old_color="#eb6864"/>
	<path style="fill:#EB6864" d="M447.629,406.758c-1.827,0-3.663-0.565-5.244-1.73c-3.919-2.904-4.74-8.43-1.836-12.35   c29.422-39.724,44.977-86.863,44.977-136.324c0-51.465-16.702-102.285-44.668-135.945c-2.189-2.631-2.657-6.294-1.201-9.393   s4.555-5.085,7.98-5.085h55.534c4.873,0,8.828,3.955,8.828,8.828s-3.955,8.828-8.828,8.828h-37.976   c23.993,35.911,37.976,84.18,37.976,132.758c0,53.274-16.746,104.051-48.437,146.838   C452.996,405.522,450.33,406.758,447.629,406.758z" data-original="#25AE88" class="active-path" data-old_color="#eb6864"/>
	<path style="fill:#EB6864" d="M397.241,512c-4.873,0-8.828-3.955-8.828-8.828v-37.976c-35.919,23.993-84.18,37.976-132.758,37.976   c-53.274,0-104.051-16.746-146.838-48.437c-3.919-2.904-4.74-8.43-1.836-12.35c2.904-3.919,8.43-4.74,12.35-1.836   c39.724,29.422,86.863,44.977,136.333,44.977c51.456,0,102.276-16.702,135.945-44.668c2.639-2.198,6.294-2.648,9.393-1.201   c3.09,1.439,5.067,4.555,5.067,7.98v55.534C406.069,508.045,402.114,512,397.241,512z" data-original="#25AE88" class="active-path" data-old_color="#eb6864"/>
	<path style="fill:#EB6864" d="M64.362,406.069H8.828c-4.873,0-8.828-3.955-8.828-8.828c0-4.873,3.955-8.828,8.828-8.828h37.976   C22.81,352.494,8.828,304.234,8.828,255.656c0-53.274,16.746-104.051,48.437-146.838c2.904-3.919,8.43-4.749,12.35-1.836   c3.919,2.904,4.74,8.43,1.836,12.35c-29.414,39.724-44.968,86.863-44.968,136.324c0,51.465,16.702,102.276,44.668,135.945   c2.189,2.631,2.657,6.294,1.201,9.393C70.894,404.092,67.787,406.069,64.362,406.069z" data-original="#25AE88" class="active-path" data-old_color="#eb6864"/>
</g><g>
	<path style="fill:#EB6864" d="M256.212,264.828c-4.864,0-8.819-3.937-8.828-8.81l-0.212-88.276   c-0.009-4.873,3.928-8.836,8.81-8.845c0.009,0,0.018,0,0.018,0c4.864,0,8.819,3.937,8.828,8.81l0.212,88.276   c0.009,4.873-3.928,8.836-8.81,8.845C256.23,264.828,256.221,264.828,256.212,264.828z" data-original="#C5411E" class="" data-old_color="#eb6864"/>
	<path style="fill:#EB6864" d="M256.212,264.828h-53.177c-4.873,0-8.828-3.955-8.828-8.828s3.955-8.828,8.828-8.828h53.177   c4.873,0,8.828,3.955,8.828,8.828S261.085,264.828,256.212,264.828z" data-original="#C5411E" class="" data-old_color="#eb6864"/>
</g><g>
	<path style="fill:#EB6864" d="M132.414,264.828h-17.655c-4.873,0-8.828-3.955-8.828-8.828s3.955-8.828,8.828-8.828h17.655   c4.873,0,8.828,3.955,8.828,8.828S137.287,264.828,132.414,264.828z" data-original="#ED8A19" class="" data-old_color="#eb6864"/>
	<path style="fill:#EB6864" d="M397.241,264.828h-17.655c-4.873,0-8.828-3.955-8.828-8.828s3.955-8.828,8.828-8.828h17.655   c4.873,0,8.828,3.955,8.828,8.828S402.114,264.828,397.241,264.828z" data-original="#ED8A19" class="" data-old_color="#eb6864"/>
	<path style="fill:#EB6864" d="M256,406.069c-4.873,0-8.828-3.955-8.828-8.828v-17.655c0-4.873,3.955-8.828,8.828-8.828   s8.828,3.955,8.828,8.828v17.655C264.828,402.114,260.873,406.069,256,406.069z" data-original="#ED8A19" class="" data-old_color="#eb6864"/>
	<path style="fill:#EB6864" d="M256,141.241c-4.873,0-8.828-3.955-8.828-8.828v-17.655c0-4.873,3.955-8.828,8.828-8.828   s8.828,3.955,8.828,8.828v17.655C264.828,137.287,260.873,141.241,256,141.241z" data-original="#ED8A19" class="" data-old_color="#eb6864"/>
	<path style="fill:#EB6864" d="M156.125,364.694c-2.26,0-4.52-0.865-6.241-2.586c-3.443-3.452-3.443-9.039,0-12.482l11.599-11.591   c3.452-3.452,9.039-3.452,12.482,0c3.443,3.452,3.443,9.039,0,12.482l-11.599,11.591   C160.644,363.838,158.385,364.694,156.125,364.694z" data-original="#ED8A19" class="" data-old_color="#eb6864"/>
	<path style="fill:#EB6864" d="M344.276,176.552c-2.26,0-4.52-0.865-6.241-2.586c-3.452-3.452-3.452-9.031,0-12.482l11.591-11.591   c3.452-3.452,9.031-3.452,12.482,0c3.452,3.452,3.452,9.031,0,12.482l-11.591,11.591   C348.796,175.687,346.536,176.552,344.276,176.552z" data-original="#ED8A19" class="" data-old_color="#eb6864"/>
	<path style="fill:#EB6864" d="M355.866,364.694c-2.26,0-4.52-0.865-6.241-2.586l-11.591-11.591c-3.452-3.452-3.452-9.031,0-12.482   c3.452-3.452,9.031-3.452,12.482,0l11.591,11.591c3.452,3.452,3.452,9.031,0,12.482   C360.386,363.838,358.126,364.694,355.866,364.694z" data-original="#ED8A19" class="" data-old_color="#eb6864"/>
	<path style="fill:#EB6864" d="M167.724,176.552c-2.26,0-4.52-0.865-6.241-2.586l-11.599-11.591c-3.452-3.443-3.452-9.031,0-12.482   c3.452-3.452,9.039-3.452,12.482,0l11.599,11.591c3.452,3.443,3.452,9.031,0,12.482   C172.244,175.687,169.984,176.552,167.724,176.552z" data-original="#ED8A19" class="" data-old_color="#eb6864"/>
</g></g> </svg>
